<?xml version="1.0" encoding="UTF-8"?>
<svg id="Layer_2" data-name="Layer 2" xmlns="http://www.w3.org/2000/svg" viewBox="0 0 322.37 329.54">
  <defs>
    <style>
      .cls-1 {
        fill: #3d59a8;
      }
    </style>
  </defs>
  <g id="Layer_1-2" data-name="Layer 1">
    <g>
      <path class="cls-1" d="M113.96,241.03l-75.99-75.99,127.07-127.07,87.69,87.69c2.4,2.4,5.64,3.74,9.03,3.74h29.87c3.2,0,4.81-3.87,2.54-6.14L175.06,4.15c-2.77-2.77-6.4-4.15-10.03-4.15s-7.26,1.38-10.03,4.15L4.15,155.01c-5.54,5.54-5.54,14.52,0,20.05l107.4,107.4c2.27,2.27,6.14.66,6.14-2.54v-29.87c0-3.39-1.35-6.64-3.74-9.03Z"/>
      <path class="cls-1" d="M291.37,175.96v122.58h-122.58v-122.58h122.58M308.19,144.96h-156.22c-7.83,0-14.18,6.35-14.18,14.18v156.22c0,7.83,6.35,14.18,14.18,14.18h156.22c7.83,0,14.18-6.35,14.18-14.18v-156.22c0-7.83-6.35-14.18-14.18-14.18h0Z"/>
    </g>
  </g>
</svg>